<?xml version="1.0" standalone="no"?>
<!DOCTYPE svg PUBLIC "-//W3C//DTD SVG 20010904//EN"
 "http://www.w3.org/TR/2001/REC-SVG-20010904/DTD/svg10.dtd">
<svg version="1.0" xmlns="http://www.w3.org/2000/svg"
 width="740.000000pt" height="740.000000pt" viewBox="0 0 740.000000 740.000000"
 preserveAspectRatio="xMidYMid meet">

<g transform="translate(0.000000,740.000000) scale(0.100000,-0.100000)"
fill="#000000" stroke="none">
<path d="M3500 6939 c-331 -18 -644 -99 -938 -244 -484 -238 -835 -609 -1022
-1081 -40 -99 -94 -311 -116 -449 -24 -149 -24 -461 -1 -598 20 -112 35 -161
187 -587 62 -173 205 -592 318 -930 202 -606 205 -616 206 -705 2 -78 6 -100
32 -156 40 -85 126 -177 206 -219 54 -29 75 -34 158 -39 136 -9 180 -40 180
-127 0 -50 21 -84 84 -138 63 -53 67 -72 37 -141 -18 -40 -18 -40 7 -87 l26
-47 -22 -46 c-28 -58 -28 -72 3 -118 l26 -37 -26 -53 c-14 -30 -25 -57 -25
-60 0 -3 18 -26 39 -51 37 -43 39 -47 29 -85 -9 -34 -7 -44 11 -69 11 -17 44
-44 72 -62 34 -23 66 -56 100 -106 57 -84 83 -101 183 -119 58 -9 70 -15 68
-29 -2 -11 9 -22 35 -33 32 -14 78 -17 298 -18 287 0 335 7 335 49 0 21 7 24
66 34 100 16 132 38 184 121 35 56 56 78 97 101 75 43 90 69 74 131 l-13 49
36 40 c20 22 36 42 36 44 0 2 -11 28 -25 57 -22 48 -23 56 -10 74 9 11 23 35
32 52 16 32 16 35 -6 88 l-23 55 26 35 c30 39 33 73 10 117 -24 47 -11 73 54
111 74 43 102 84 102 149 0 43 4 53 32 79 18 16 36 29 40 29 3 0 9 8 13 19 4
13 25 23 73 35 227 55 374 203 420 425 15 75 15 80 -4 140 l-21 61 95 288 c52
158 159 476 239 707 226 655 242 701 268 803 45 174 60 300 59 517 -1 157 -6
225 -22 315 -53 292 -163 555 -330 789 -82 116 -272 315 -396 415 -441 357
-1010 537 -1596 505z m450 -70 c399 -57 774 -213 1083 -452 42 -33 77 -62 77
-64 0 -3 -16 7 -36 22 -118 90 -378 247 -411 248 -7 0 -13 4 -13 8 0 10 -41
24 -59 20 -7 -1 -10 2 -6 8 7 12 7 12 -43 16 -19 1 -39 8 -45 14 -6 6 -19 11
-30 11 -10 0 -16 4 -13 9 6 10 -54 35 -62 26 -3 -3 1 -5 8 -5 7 0 11 -2 8 -5
-3 -3 -47 6 -99 20 -439 116 -894 108 -1279 -23 -177 -61 -290 -114 -464 -218
-49 -30 -91 -54 -92 -54 -2 0 -12 -6 -21 -14 -10 -8 -53 -41 -95 -73 -42 -32
-100 -78 -130 -103 -29 -24 -44 -34 -33 -21 11 13 76 71 145 130 69 58 131
111 138 118 23 23 2 14 -56 -22 -32 -19 -76 -45 -99 -57 -56 -31 -135 -92
-227 -177 -42 -39 -79 -71 -82 -71 -24 0 166 169 258 230 21 14 38 29 38 33 0
29 -323 -247 -379 -323 l-25 -35 33 30 c43 38 32 17 -37 -67 -31 -37 -60 -64
-65 -61 -6 3 -7 1 -3 -5 11 -18 -4 -37 -16 -21 -7 11 -8 9 -4 -4 4 -12 -5 -35
-24 -63 -54 -77 -148 -276 -186 -389 -62 -190 -85 -326 -91 -536 -5 -176 -7
-186 -24 -182 -21 6 -21 8 -19 163 5 379 146 779 388 1105 229 307 544 544
922 695 384 153 760 198 1170 139z m-270 -103 c-57 -20 -90 -38 -90 -52 0 -26
106 -63 266 -93 370 -69 586 -147 835 -301 74 -46 219 -156 219 -166 0 -2 -28
18 -62 45 -143 112 -360 231 -534 294 -197 71 -443 110 -782 125 -188 9 -225
18 -187 46 10 7 40 21 67 31 26 9 48 21 48 26 0 21 -108 23 -241 4 -19 -2 -8
2 24 10 93 24 254 43 367 43 94 0 101 -1 70 -12z m-770 -234 c0 -4 -17 -14
-37 -21 -79 -28 -272 -128 -360 -188 -51 -34 -93 -58 -93 -53 0 17 152 112
279 174 204 101 211 103 211 88z m977 -28 c-3 -3 -12 -4 -19 -1 -8 3 -5 6 6 6
11 1 17 -2 13 -5z m-487 -68 c0 -3 -4 -8 -10 -11 -5 -3 -10 -1 -10 4 0 6 5 11
10 11 6 0 10 -2 10 -4z m-305 -16 c-3 -5 -11 -10 -16 -10 -6 0 -7 5 -4 10 3 6
11 10 16 10 6 0 7 -4 4 -10z m1717 -80 c110 -62 209 -139 203 -157 -2 -8 2
-10 12 -6 13 5 15 2 10 -11 -4 -9 -3 -15 2 -11 5 3 33 -22 62 -55 33 -38 75
-73 112 -92 55 -30 167 -138 205 -198 9 -14 28 -41 42 -60 134 -177 220 -487
220 -791 0 -122 -14 -286 -30 -349 -9 -33 -9 -32 -5 10 3 25 6 101 7 169 0 92
-3 125 -13 131 -7 5 -16 37 -20 72 -3 35 -9 81 -13 103 l-6 40 14 -40 14 -40
1 52 c2 78 -35 270 -68 363 -78 213 -234 450 -343 521 -32 20 -98 74 -146 118
-113 104 -207 178 -307 240 -109 68 -114 73 -80 58 17 -6 74 -37 127 -67z
m-482 -33 c0 -13 -7 -32 -16 -43 -13 -16 -15 -16 -10 -1 8 25 -10 21 -62 -15
-60 -41 -76 -61 -104 -125 -12 -29 -25 -53 -29 -53 -9 0 27 96 52 136 12 20
45 45 89 68 39 21 70 41 70 47 0 5 2 9 5 9 3 0 5 -10 5 -23z m223 -135 c-19
-42 -59 -124 -88 -182 -71 -137 -95 -193 -105 -243 -7 -38 -8 -39 -9 -11 -1
46 34 151 72 214 61 101 127 254 127 295 0 37 1 38 19 21 19 -17 18 -19 -16
-94z m-1828 88 c3 -6 -1 -7 -9 -4 -18 7 -21 14 -7 14 6 0 13 -4 16 -10z m257
-42 c-7 -7 -12 -8 -12 -2 0 14 12 26 19 19 2 -3 -1 -11 -7 -17z m247 -50 c-14
-13 -31 -38 -38 -55 -14 -35 -31 -35 -31 0 0 27 48 77 73 77 18 0 18 -2 -4
-22z m201 -41 c-24 -22 -24 -22 -6 0 10 12 15 27 11 35 -7 10 -5 11 6 0 11
-10 9 -16 -11 -35z m650 -24 c-38 -43 -57 -85 -76 -168 l-14 -60 4 57 c2 31
13 77 25 102 23 53 84 132 89 117 2 -6 -11 -28 -28 -48z m896 -5 l29 -33 -32
29 c-31 28 -38 36 -30 36 2 0 16 -15 33 -32z m-874 -5 c-5 -10 -7 -23 -5 -30
2 -6 -1 -14 -6 -18 -7 -3 -11 3 -11 15 0 24 19 64 27 57 2 -3 0 -14 -5 -24z
m701 -115 c-3 -87 -11 -153 -19 -169 -7 -14 -16 -50 -20 -80 -7 -54 -30 -126
-39 -118 -2 3 0 21 5 40 52 191 60 231 62 326 l3 102 -25 -22 c-22 -20 -22
-19 3 11 15 19 27 38 27 43 0 5 2 9 4 9 3 0 2 -64 -1 -142z m-2383 117 c-27
-14 -36 -13 -25 4 3 6 16 11 28 11 21 -1 21 -1 -3 -15z m670 -16 c-30 -16 -70
-44 -87 -61 -36 -35 -44 -25 -13 15 21 26 112 76 140 76 8 1 -10 -13 -40 -30z
m-740 -17 c-27 -22 -39 -106 -21 -141 7 -11 8 -21 3 -21 -15 0 -32 50 -32 95
0 48 25 85 56 85 13 0 11 -4 -6 -18z m-190 5 c0 -2 -10 -12 -22 -23 l-23 -19
19 23 c18 21 26 27 26 19z m800 -26 c0 -5 -17 -11 -39 -15 -71 -11 -110 -79
-98 -173 3 -20 0 -30 -6 -26 -15 9 -2 139 17 168 19 29 67 54 104 55 12 0 22
-4 22 -9z m2125 -1 c3 -5 1 -10 -4 -10 -6 0 -11 5 -11 10 0 6 2 10 4 10 3 0 8
-4 11 -10z m-324 -37 c-12 -20 -14 -14 -5 12 4 9 9 14 11 11 3 -2 0 -13 -6
-23z m-1446 -22 c-4 -24 -2 -49 5 -63 10 -19 10 -21 -1 -10 -7 6 -23 12 -35
12 -25 0 -38 -34 -23 -61 8 -17 7 -18 -15 -9 -17 6 -26 5 -30 -3 -3 -7 -4 6
-3 27 2 35 6 41 36 51 27 9 38 20 50 53 19 53 25 53 16 3z m1303 9 c-22 -30
-35 -41 -22 -17 9 16 36 47 41 47 2 0 -6 -13 -19 -30z m-2518 17 c0 -2 -22
-32 -50 -68 -27 -35 -50 -69 -50 -75 0 -15 -27 -26 -34 -15 -3 4 6 19 20 32
14 13 43 47 66 76 36 48 48 60 48 50z m2484 -29 c-4 -7 -25 -39 -46 -70 -47
-68 -83 -156 -93 -220 -4 -27 -11 -48 -15 -48 -10 0 15 113 37 165 16 39 111
185 120 185 2 0 1 -6 -3 -12z m-859 -48 c3 -5 2 -10 -4 -10 -5 0 -13 5 -16 10
-3 6 -2 10 4 10 5 0 13 -4 16 -10z m-1591 -65 c-6 -16 -24 -21 -24 -7 0 11 11
22 21 22 5 0 6 -7 3 -15z m180 -48 c-14 -26 -45 -68 -68 -94 -24 -26 -50 -61
-59 -78 -9 -16 -16 -24 -17 -17 0 23 21 55 77 115 29 32 53 63 53 68 0 13 32
61 37 56 2 -2 -8 -25 -23 -50z m-124 40 c0 -2 -12 -14 -27 -28 l-28 -24 24 28
c23 25 31 32 31 24z m2935 -7 c3 -5 1 -10 -4 -10 -6 0 -11 5 -11 10 0 6 2 10
4 10 3 0 8 -4 11 -10z m-3155 -23 c0 -2 -10 -12 -22 -23 l-23 -19 19 23 c18
21 26 27 26 19z m360 -112 c-12 -19 -26 -35 -31 -35 -13 0 -12 1 19 72 26 61
27 62 30 30 2 -20 -5 -45 -18 -67z m890 34 c0 -6 -4 -7 -10 -4 -5 3 -10 11
-10 16 0 6 5 7 10 4 6 -3 10 -11 10 -16z m50 -2 c9 -3 4 -6 -12 -6 -27 -1 -35
8 -21 22 4 4 9 3 12 -1 3 -5 13 -12 21 -15z m515 -8 c37 -18 24 -21 -20 -4
-14 6 -17 5 -10 -3 6 -6 28 -18 50 -27 38 -15 38 -15 8 -10 -32 4 -33 4 -33
-35 0 -32 4 -39 23 -43 12 -2 -3 -4 -33 -4 -30 0 -43 2 -27 4 24 4 27 8 27 44
0 35 -3 39 -25 39 -22 0 -24 3 -15 24 6 17 5 26 -3 30 -7 3 -6 4 3 4 8 0 33
-8 55 -19z m-1968 -21 c-3 -8 -6 -5 -6 6 -1 11 2 17 5 13 3 -3 4 -12 1 -19z
m1864 -12 c-8 -9 -9 -51 -5 -132 3 -66 5 -128 5 -139 0 -38 27 26 34 80 9 73
14 85 34 85 10 0 20 -3 23 -6 12 -12 -38 -164 -54 -164 -5 0 -8 -5 -8 -11 0
-6 14 0 32 12 l31 23 -5 -22 c-4 -12 -2 -22 3 -22 6 0 9 -8 7 -17 -2 -14 4
-18 27 -18 17 -1 37 -4 45 -7 25 -11 79 -15 74 -6 -3 4 -22 9 -42 10 -34 1
-34 2 -7 5 39 5 111 -19 107 -36 -1 -7 2 -9 9 -6 6 4 29 -10 52 -32 23 -22 67
-60 97 -83 30 -24 47 -40 37 -37 -11 4 -16 3 -12 -4 4 -5 15 -7 25 -4 12 4 34
-12 75 -57 32 -35 62 -63 66 -63 4 0 11 -4 16 -9 5 -5 3 -6 -4 -2 -20 11 -16
0 22 -57 40 -61 73 -179 45 -162 -6 4 -10 -6 -10 -23 0 -32 -55 -193 -78 -229
-17 -27 -32 -30 -26 -5 2 9 11 75 18 145 11 101 18 131 32 141 16 13 16 16
-12 60 -16 26 -40 69 -54 96 -14 27 -49 74 -78 105 -29 30 -52 60 -52 65 0 6
-5 10 -11 10 -5 0 -7 -5 -3 -11 14 -23 -40 14 -98 68 -69 64 -120 88 -200 97
-55 6 -58 5 -58 -16 0 -12 3 -19 6 -15 14 14 45 -33 54 -82 5 -29 12 -57 15
-62 9 -13 35 -11 36 4 0 10 2 10 6 0 8 -21 41 -15 58 10 19 27 30 15 39 -45 4
-27 16 -48 37 -65 16 -14 42 -49 56 -77 32 -61 39 -167 26 -361 -14 -209 6
-310 76 -387 44 -49 53 -73 30 -88 -4 -3 19 -25 52 -49 33 -24 62 -47 64 -51
6 -9 -124 38 -140 51 -6 4 -24 13 -40 19 -29 11 -29 11 -11 -9 10 -11 23 -18
27 -15 5 3 9 0 9 -5 0 -6 5 -11 10 -11 6 0 21 -12 34 -27 17 -20 25 -23 31
-13 5 8 4 11 -2 7 -6 -4 -16 0 -23 8 -13 15 3 12 77 -15 32 -12 53 -42 34 -48
-6 -2 -9 -8 -5 -13 11 -19 -19 -8 -83 31 -36 22 -68 38 -70 36 -3 -3 23 -26
56 -52 60 -47 67 -55 55 -67 -8 -8 -66 21 -81 42 -10 13 -12 13 -13 2 0 -10
-11 -5 -31 15 -22 21 -28 24 -23 10 5 -14 4 -17 -4 -12 -15 9 -15 1 -2 -24 5
-10 7 -40 3 -66 l-6 -48 -13 45 c-18 59 -35 89 -51 89 -9 0 -8 -10 7 -38 11
-20 22 -53 25 -72 l6 -35 -14 36 c-12 32 -54 99 -61 99 -1 0 -3 -7 -3 -15 0
-8 4 -12 8 -9 10 6 17 -39 22 -128 2 -54 0 -65 -10 -56 -7 6 -13 17 -13 24 0
21 -11 17 -49 -18 -22 -21 -28 -23 -15 -8 35 42 35 46 -10 91 l-44 44 -37 -43
c-20 -24 -40 -41 -43 -37 -3 3 5 16 18 30 13 14 20 28 17 32 -4 3 -7 1 -7 -5
0 -7 -5 -12 -10 -12 -7 0 -7 6 0 19 5 11 10 26 10 33 -1 19 -40 -63 -40 -83 0
-10 -4 -20 -9 -23 -4 -3 -11 -41 -15 -84 -4 -43 -13 -105 -20 -139 -14 -69
-11 -72 64 -73 45 0 80 -10 80 -22 0 -5 -19 -7 -42 -4 -24 3 -80 8 -125 11
-70 5 -83 4 -83 -9 0 -10 13 -17 38 -21 20 -4 50 -11 66 -16 16 -5 51 -9 77
-9 26 0 50 -4 53 -9 4 -5 -43 -7 -114 -4 -87 4 -120 3 -120 -6 0 -7 21 -11 58
-12 31 0 75 -7 97 -15 l40 -13 -40 4 c-22 2 -33 2 -25 -2 8 -3 23 -15 35 -26
11 -11 15 -17 8 -13 -6 3 -22 2 -35 -3 -18 -8 -8 -10 45 -10 114 -1 74 -19
-60 -26 -212 -13 -512 13 -583 50 -31 16 -43 39 -35 66 12 38 148 82 298 95
42 4 77 11 77 15 0 5 -4 9 -9 9 -5 0 -12 38 -16 84 -5 60 -11 83 -19 80 -7 -3
-13 2 -13 10 0 8 4 13 8 11 4 -3 9 2 13 10 3 8 0 17 -6 21 -7 5 -8 2 -4 -7 4
-8 0 -5 -8 5 -15 18 -16 11 -17 -95 -1 -63 -4 -100 -6 -84 -12 105 -16 118
-44 149 -16 19 -29 39 -29 45 0 7 -5 9 -11 5 -7 -4 -9 -27 -5 -63 4 -37 3 -49
-3 -36 -5 11 -10 41 -10 68 -1 38 -4 47 -18 47 -17 1 -17 1 0 14 9 7 17 19 17
27 -1 23 -40 -31 -40 -55 0 -11 -7 -43 -15 -70 -8 -27 -12 -60 -10 -75 5 -25
5 -25 -5 -3 -6 15 -7 37 0 65 5 23 9 71 9 107 l0 65 -24 -40 c-31 -50 -31 -45
-1 34 14 34 22 70 19 79 -6 15 -5 16 13 2 17 -14 18 -14 6 2 -8 10 -12 23 -10
30 3 7 -5 18 -16 24 -12 6 -20 16 -18 23 1 7 -2 9 -8 6 -6 -4 -9 -14 -6 -22 6
-15 0 -13 -46 19 -21 14 -28 28 -28 51 0 22 -3 28 -9 18 -20 -31 -52 194 -41
284 11 86 22 135 29 131 3 -2 6 6 7 17 0 12 3 43 7 70 6 46 5 47 -28 61 -47
20 -70 67 -34 72 5 1 14 2 19 3 6 0 10 8 10 17 0 14 2 15 17 3 15 -12 16 -12
10 4 -3 9 -3 17 2 17 8 0 41 70 41 86 0 3 -7 3 -16 0 -14 -5 -15 -4 -4 9 7 9
10 18 6 22 -3 3 -7 4 -9 2 -2 -2 -25 -37 -51 -76 -27 -40 -50 -73 -53 -73 -5
0 2 12 40 70 66 98 160 220 170 220 6 0 3 -6 -6 -12 -14 -12 -15 -15 -1 -33
l16 -20 -2 20 c-1 11 -2 23 -1 28 0 4 1 10 2 15 0 4 10 18 22 31 l22 24 -43
-24 c-24 -13 -62 -40 -85 -60 -23 -20 -55 -42 -72 -50 -24 -11 -34 -27 -52
-79 l-22 -65 0 41 c-1 57 23 119 63 168 55 65 129 140 155 156 50 31 147 144
183 213 20 39 27 46 28 29 0 -22 25 -41 37 -29 3 4 13 73 22 153 11 100 21
149 30 152 8 3 12 -3 11 -14 -1 -11 -2 -52 -1 -92 1 -69 2 -72 21 -62 18 9 20
21 20 95 0 77 4 89 29 94 2 1 -2 -5 -8 -13z m-574 -93 c7 -89 -4 -78 -15 15
-5 45 -5 69 1 63 5 -5 12 -40 14 -78z m-1133 57 c-26 -11 -43 -27 -47 -41 -9
-33 -8 -137 1 -122 5 8 12 8 27 -3 18 -13 18 -18 6 -72 -17 -73 -16 -108 5
-141 17 -26 17 -26 -4 -8 -11 10 -31 42 -44 70 -20 45 -23 68 -23 165 l0 114
33 29 c20 18 43 29 60 28 25 0 24 -2 -14 -19z m1094 13 c-2 -7 7 -69 18 -133
3 -15 -1 -10 -10 12 -17 43 -24 128 -11 128 3 0 4 -3 3 -7z m922 -27 c0 -11
-19 -15 -25 -6 -3 5 1 10 9 10 9 0 16 -2 16 -4z m251 -19 c-10 -9 -11 -8 -5 6
3 10 9 15 12 12 3 -3 0 -11 -7 -18z m-1941 3 c0 -5 -2 -10 -4 -10 -3 0 -8 5
-11 10 -3 6 -1 10 4 10 6 0 11 -4 11 -10z m710 0 c8 -5 11 -10 5 -10 -5 0 -2
-7 7 -14 40 -30 62 -106 65 -216 3 -120 -11 -117 -20 5 -7 96 -28 160 -67 206
l-30 34 30 -60 c32 -63 54 -167 48 -232 l-3 -38 -17 37 c-24 54 -80 138 -120
180 -36 39 -38 48 -6 48 11 0 27 15 39 35 21 35 42 43 69 25z m1004 -11 c-3
-5 -10 -7 -15 -3 -5 3 -7 10 -3 15 3 5 10 7 15 3 5 -3 7 -10 3 -15z m-2207
-26 c-54 -107 -112 -336 -137 -541 -19 -149 -19 -152 -15 -55 6 117 34 279 71
403 29 96 84 233 91 226 2 -2 -2 -17 -10 -33z m1683 19 c0 -10 -18 -19 -125
-62 -44 -17 -91 -38 -103 -47 -34 -21 -38 -9 -5 15 26 18 209 101 226 102 4 0
7 -4 7 -8z m739 -50 c-2 -32 3 -57 14 -73 38 -53 14 -37 -28 20 -49 67 -59 88
-20 44 l24 -28 1 43 c0 23 2 42 5 42 4 0 5 -22 4 -48z m198 1 c-3 -10 -5 -2
-5 17 0 19 2 27 5 18 2 -10 2 -26 0 -35z m-399 13 c40 -21 92 -65 92 -79 0 -6
-12 1 -27 15 -31 28 -64 48 -94 53 -10 2 -29 11 -41 19 -21 15 -21 15 9 12 17
-2 44 -11 61 -20z m132 -29 c0 -5 -4 -5 -10 -2 -5 3 -10 14 -10 23 0 15 2 15
10 2 5 -8 10 -19 10 -23z m-247 6 c26 -9 47 -20 47 -24 0 -19 -29 -13 -70 12
-52 33 -45 36 23 12z m202 7 c3 -6 -1 -7 -9 -4 -18 7 -21 14 -7 14 6 0 13 -4
16 -10z m-1790 -37 c-18 -17 -30 -16 -45 2 -10 12 -10 15 4 15 9 0 16 5 16 10
0 6 7 6 19 -2 16 -9 17 -14 6 -25z m472 30 c-4 -3 1 -15 10 -26 10 -11 13 -18
7 -14 -6 3 -27 2 -48 -4 -20 -5 -41 -7 -47 -4 -20 13 31 53 70 54 8 1 11 -2 8
-6z m1273 -63 c36 -38 94 -139 86 -147 -3 -3 -17 15 -32 39 -30 49 -89 105
-119 114 -23 8 -36 24 -29 36 11 17 60 -5 94 -42z m-1670 34 c0 -3 -5 -26 -11
-51 l-12 -45 -13 32 c-12 27 -16 30 -29 20 -23 -19 -19 6 5 30 18 18 60 28 60
14z m-375 -22 c-11 -2 -27 -9 -35 -15 -8 -7 -7 -2 3 10 12 14 25 19 35 15 15
-5 14 -7 -3 -10z m206 -72 c-7 -53 -9 -58 -10 -24 -1 43 10 116 16 99 1 -6 -1
-39 -6 -75z m2186 13 c-2 -16 -4 -5 -4 22 0 28 2 40 4 28 2 -13 2 -35 0 -50z
m-2367 43 c0 -2 3 -12 6 -21 5 -13 1 -15 -20 -11 -15 3 -32 -1 -41 -10 -21
-21 -19 2 3 25 15 17 52 29 52 17z m1391 -79 c-25 -75 -71 -141 -112 -163 -16
-8 -29 -12 -29 -8 0 19 24 84 32 84 4 0 8 6 8 14 0 8 4 16 9 18 5 2 23 32 41
68 27 54 34 62 40 45 7 -19 8 -18 15 5 5 14 10 19 12 13 3 -7 -5 -42 -16 -76z
m674 -30 c83 -115 88 -122 44 -74 -24 26 -70 74 -101 107 -32 32 -58 61 -58
64 0 19 81 -49 115 -97z m-1372 69 c-4 -6 -15 -17 -26 -25 -10 -7 -16 -20 -13
-28 3 -8 2 -11 -3 -8 -16 9 -24 -80 -12 -134 6 -28 22 -73 35 -99 26 -50 81
-110 93 -99 3 4 1 7 -5 7 -25 0 -114 169 -111 213 0 7 7 -6 15 -28 18 -49 38
-72 29 -32 -9 32 2 84 15 71 5 -5 16 -38 25 -74 19 -75 35 -108 64 -134 25
-23 27 -15 5 18 -27 43 3 39 43 -5 21 -23 58 -55 82 -71 40 -25 42 -28 20 -28
-14 0 -58 11 -97 25 -39 14 -81 25 -91 25 -52 0 -137 122 -155 220 -9 55 10
152 35 173 12 9 17 17 11 17 -14 0 -42 -28 -42 -42 0 -6 -3 -9 -6 -6 -10 10
16 49 39 57 27 10 59 2 50 -13z m237 -50 c0 -24 -3 -21 -30 34 l-22 45 26 -30
c14 -16 25 -39 26 -49z m1210 20 c0 -6 -7 -1 -15 10 -8 10 -15 23 -15 28 0 6
7 1 15 -10 8 -10 15 -23 15 -28z m-1666 10 c12 -8 34 -37 49 -65 34 -62 29
-68 -6 -8 -38 65 -60 80 -115 80 -34 -1 -42 2 -27 8 25 10 72 3 99 -15z m653
2 c-3 -8 -6 -5 -6 6 -1 11 2 17 5 13 3 -3 4 -12 1 -19z m-387 -18 c6 -11 8
-20 6 -20 -3 0 -10 9 -16 20 -6 11 -8 20 -6 20 3 0 10 -9 16 -20z m-813 -12
c-3 -8 -6 -5 -6 6 -1 11 2 17 5 13 3 -3 4 -12 1 -19z m422 -148 c19 -35 92
-132 110 -147 13 -10 8 -10 -24 -2 -67 17 -101 37 -131 76 -15 20 -21 33 -13
28 11 -7 12 -6 2 6 -12 15 -33 118 -32 158 l0 26 15 -30 c7 -16 23 -56 35 -88
29 -82 32 -67 3 18 -13 39 -23 84 -23 100 0 21 7 7 23 -45 12 -41 28 -86 35
-100z m1688 119 c6 -13 41 -57 77 -97 67 -73 89 -116 39 -71 -81 70 -97 89
-123 142 -15 32 -22 56 -16 54 6 -2 16 -14 23 -28z m-1958 -29 c6 -16 16 -45
23 -62 7 -18 35 -57 63 -87 43 -47 45 -51 14 -28 -20 15 -43 27 -52 27 -9 0
-24 15 -34 33 -35 65 -71 152 -67 159 9 15 41 -11 53 -42z m2298 18 c-3 -7 -5
-2 -5 12 0 14 2 19 5 13 2 -7 2 -19 0 -25z m-1988 -23 c0 -5 -4 -3 -9 5 -5 8
-9 22 -9 30 0 16 17 -16 18 -35z m761 -10 l1 20 9 -20 c5 -11 9 -27 9 -35 0
-9 -4 -8 -9 5 -8 18 -9 18 -10 -5 -1 -19 -5 -14 -16 20 -7 25 -13 52 -13 60 0
8 6 -3 14 -25 8 -25 14 -33 15 -20z m-320 -92 c0 -6 14 -21 30 -33 30 -21 30
-21 30 -1 0 11 4 22 9 25 5 4 7 -4 4 -16 -4 -18 -2 -20 5 -9 12 16 16 6 30
-79 l8 -45 18 52 c18 55 36 77 37 46 0 -10 2 -32 4 -50 5 -33 -15 -105 -31
-110 -25 -8 -74 39 -102 99 -77 163 -112 240 -112 246 1 12 70 -112 70 -125z
m1350 83 c0 -5 -7 -3 -15 4 -8 7 -12 17 -9 22 7 10 24 -9 24 -26z m121 -123
c39 -21 52 -35 73 -83 34 -76 33 -87 -3 -25 -16 28 -41 61 -56 75 l-27 25 13
-27 c7 -16 16 -28 21 -28 5 0 6 -4 3 -10 -3 -5 5 -37 19 -71 13 -33 23 -59 21
-57 -46 53 -100 127 -125 169 -25 43 -30 48 -25 24 3 -16 15 -43 27 -59 l20
-28 -30 22 c-27 20 -32 31 -37 86 -9 82 0 96 33 49 14 -19 47 -47 73 -62z
m591 47 c9 -25 17 -61 17 -80 1 -51 -43 -115 -95 -139 -38 -18 -45 -19 -90 -5
-28 8 -60 12 -74 8 -14 -4 -28 -7 -32 -6 -5 1 -21 -17 -38 -40 l-30 -41 0 30
c0 67 59 221 98 256 20 19 106 49 115 41 2 -3 -10 -33 -28 -67 -55 -104 -50
-117 10 -27 90 134 117 147 147 70z m251 22 c13 -12 24 -29 24 -37 0 -17 -13
-20 -22 -5 -15 24 -140 -3 -157 -34 -11 -20 -39 -9 -31 11 4 10 2 14 -5 9 -14
-8 -45 35 -33 47 41 41 184 46 224 9z m-1961 -23 c4 -23 -1 -37 -17 -53 -26
-26 -39 -57 -22 -53 7 1 20 11 30 21 9 10 17 15 17 9 0 -16 -46 -54 -55 -46
-4 5 -5 2 0 -5 5 -9 -8 -30 -37 -60 -24 -26 -52 -60 -62 -75 -27 -44 -33 -22
-7 26 l23 42 -26 -30 -27 -30 15 32 c9 17 34 53 57 80 22 26 51 60 64 75 12
15 20 30 16 34 -3 4 0 4 7 0 14 -8 17 10 2 19 -5 3 -10 12 -10 18 0 7 4 6 10
-3 8 -12 10 -11 10 8 0 32 7 27 12 -9z m88 -29 c-8 -6 -24 -15 -35 -21 -16 -8
-15 -6 4 10 13 12 28 21 35 21 6 0 4 -5 -4 -10z m-59 -13 c-6 -8 -7 -18 -3
-22 4 -5 1 -5 -6 -1 -10 6 -10 11 -1 22 6 8 14 14 16 14 3 0 0 -6 -6 -13z
m1973 -79 c18 -15 35 -25 38 -22 8 8 35 -39 46 -80 9 -32 8 -40 -9 -57 -25
-25 -67 -24 -96 3 -20 19 -23 19 -23 4 0 -10 -16 -24 -42 -36 -57 -26 -68 -25
-68 5 0 28 -51 91 -81 100 -11 4 -18 9 -16 12 7 6 61 -22 82 -43 15 -15 16
-15 10 9 -4 14 -2 28 4 31 6 4 11 14 11 22 0 8 -4 12 -10 9 -6 -3 -7 1 -4 9 4
11 -2 19 -17 25 -18 7 -20 10 -6 10 10 1 30 -7 45 -16 l27 -17 -19 22 c-11 12
-26 22 -35 23 -9 0 -6 4 9 10 14 6 40 8 57 5 l33 -5 -18 27 -17 27 33 -25 c18
-14 48 -37 66 -52z m-3444 58 c0 -3 -4 -8 -10 -11 -5 -3 -10 -1 -10 4 0 6 5
11 10 11 6 0 10 -2 10 -4z m3568 -27 c58 -28 83 -53 88 -88 2 -7 -14 2 -34 22
-20 20 -63 46 -94 58 -32 12 -58 26 -58 30 0 17 38 9 98 -22z m-119 -5 c17
-14 31 -31 31 -37 -1 -7 -11 0 -23 14 -12 14 -31 31 -42 37 -11 6 -15 12 -8
12 6 0 25 -12 42 -26z m358 -6 c-3 -8 -6 -5 -6 6 -1 11 2 17 5 13 3 -3 4 -12
1 -19z m-3702 -58 c-16 -10 -31 -17 -34 -14 -7 6 32 33 49 34 8 0 2 -9 -15
-20z m2352 -63 c13 -25 12 -34 -2 -78 -23 -67 -36 -53 -20 21 9 46 10 64 1 73
-6 7 -18 21 -26 32 -15 20 -15 20 9 0 13 -11 30 -33 38 -48z m1138 -25 c-2 -7
-1 -11 4 -7 11 6 51 -94 58 -145 4 -28 0 -40 -20 -58 -39 -37 -77 -27 -103 26
-22 46 -36 44 -47 -8 -3 -14 -3 4 -1 40 l5 65 -19 -28 -19 -29 -5 31 c-4 28
-2 30 36 37 23 3 46 10 51 14 6 5 15 8 20 7 6 -1 11 18 13 42 3 34 -2 49 -20
70 -12 14 -6 10 15 -9 21 -19 35 -40 32 -48z m55 26 c0 -4 -4 -10 -10 -13 -6
-4 -7 1 -3 11 5 13 3 15 -7 9 -8 -5 -11 -4 -6 3 3 6 2 13 -4 17 -5 3 -10 12
-10 18 0 12 39 -32 40 -45z m-3608 -1 c-25 -27 -30 -46 -7 -27 9 7 18 11 20 8
3 -3 -1 -11 -9 -17 -15 -13 -36 -7 -36 8 0 13 42 63 48 56 3 -3 -4 -15 -16
-28z m3183 -21 c30 -20 48 -61 41 -91 -4 -17 -15 -21 -63 -23 -72 -4 -108 -21
-45 -22 23 0 57 -6 75 -14 39 -16 87 -70 87 -96 0 -16 -4 -17 -32 -9 -47 13
-47 12 -5 -18 36 -26 48 -55 26 -68 -6 -5 -3 -13 10 -22 27 -18 27 -64 1 -88
-14 -13 -17 -21 -9 -26 19 -11 3 -36 -38 -59 -35 -19 -27 -22 22 -6 15 5 15 4
-2 -5 -13 -7 -23 -16 -23 -21 0 -5 -6 -6 -12 -2 -10 5 -10 3 0 -7 8 -9 15 -10
20 -4 7 10 48 35 57 35 18 0 -22 -43 -61 -66 -40 -24 -53 -26 -117 -22 -153
10 -247 97 -247 228 0 43 46 214 68 255 9 17 17 35 17 40 0 6 4 16 8 23 5 6 4
12 -2 12 -6 0 1 11 15 25 14 14 23 29 19 34 -9 15 77 41 122 37 24 -2 54 -11
68 -20z m-535 -2 c0 -8 -4 -12 -10 -9 -5 3 -10 10 -10 16 0 5 5 9 10 9 6 0 10
-7 10 -16z m303 -11 c25 -24 22 -29 -28 -42 -41 -10 -44 -13 -30 -27 8 -8 15
-19 15 -23 0 -18 -33 -101 -39 -101 -5 0 -11 -34 -14 -76 -3 -42 -10 -81 -15
-86 -12 -12 -70 84 -82 138 -17 74 11 146 80 208 45 40 75 43 113 9z m-1918 3
c-22 -7 -43 -11 -47 -9 -5 2 -8 -1 -8 -8 0 -7 -3 -10 -6 -7 -3 4 -21 0 -39 -8
-45 -18 -54 -18 -51 3 4 26 53 42 126 42 l65 -1 -40 -12z m115 -19 c0 -5 -9
-7 -20 -4 -11 3 -20 2 -20 -2 0 -4 -15 -5 -32 -2 l-33 5 35 6 c47 9 70 8 70
-3z m-1187 -9 c-6 -7 -8 -30 -5 -52 4 -34 9 -40 47 -57 23 -10 66 -25 95 -32
46 -12 50 -15 29 -20 -68 -17 -231 69 -201 106 9 10 8 17 -1 26 -9 10 -8 15 7
27 25 17 42 19 29 2z m1217 2 c0 -5 -2 -10 -4 -10 -3 0 -8 5 -11 10 -3 6 -1
10 4 10 6 0 11 -4 11 -10z m1461 -7 c13 -16 12 -17 -3 -4 -17 13 -22 21 -14
21 2 0 10 -8 17 -17z m976 -5 c-3 -8 -6 -5 -6 6 -1 11 2 17 5 13 3 -3 4 -12 1
-19z m-2482 -18 c-39 -26 -55 -26 -25 0 13 11 30 20 39 20 10 0 5 -8 -14 -20z
m1331 -6 c-3 -8 -2 -13 3 -10 5 3 16 -5 24 -18 14 -21 14 -26 -4 -55 -10 -17
-19 -43 -19 -56 0 -30 -13 -32 -40 -5 -32 32 -25 94 18 143 19 21 26 22 18 1z
m1341 -76 c-3 -7 -5 -2 -5 12 0 14 2 19 5 13 2 -7 2 -19 0 -25z m-1127 -18
c17 -22 33 -51 34 -64 2 -14 17 -46 34 -72 18 -26 34 -62 38 -81 7 -40 1 -159
-9 -169 -4 -4 -19 3 -34 17 l-26 24 27 -50 c15 -27 21 -42 14 -31 -7 10 -23
31 -35 46 -12 15 -20 30 -16 34 3 3 1 6 -5 6 -16 0 -15 -5 5 -43 9 -18 16 -38
15 -44 -2 -7 1 -13 6 -13 5 0 7 -11 4 -26 l-5 -25 -18 30 c-30 49 -32 36 -3
-20 31 -63 27 -75 -5 -13 -28 52 -38 53 -16 1 17 -42 20 -71 5 -62 -13 8 -13
3 0 -32 l10 -28 -26 30 c-23 27 -24 27 -14 5 7 -14 20 -33 29 -44 15 -17 15
-18 -4 -15 -45 9 -121 163 -131 268 -5 47 -2 63 19 101 13 25 34 63 46 85 12
22 29 43 39 47 15 6 15 7 -2 7 -14 1 -17 6 -12 24 19 65 22 99 8 125 -19 34
-7 26 28 -18z m-2746 2 c2 -4 -23 -19 -56 -32 -57 -24 -127 -75 -116 -85 3 -3
21 2 41 10 20 8 44 15 54 14 14 0 15 -2 3 -6 -8 -3 -32 -14 -54 -24 -21 -10
-44 -16 -50 -12 -6 3 -8 3 -4 -2 4 -4 3 -14 -3 -22 -13 -15 2 -18 17 -4 19 19
135 12 174 -10 9 -5 1 -6 -20 -1 -56 11 -133 7 -168 -10 -36 -18 -38 -14 -21
43 15 48 42 74 121 114 73 37 75 38 82 27z m1295 -177 c6 -83 16 -226 22 -320
6 -93 13 -186 14 -205 2 -19 6 -84 10 -145 3 -60 9 -126 12 -145 4 -26 2 -32
-6 -24 -12 11 -24 139 -25 261 -1 39 -4 70 -7 68 -3 -2 -13 121 -23 273 -9
152 -19 298 -22 324 -5 42 1 76 12 66 2 -2 8 -71 13 -153z m1171 114 c0 -6 -4
-7 -10 -4 -5 3 -10 11 -10 16 0 6 5 7 10 4 6 -3 10 -11 10 -16z m-2166 0 c14
-7 23 -16 20 -20 -3 -5 1 -7 8 -4 7 3 27 1 43 -4 26 -8 23 -9 -25 -9 -30 0
-71 6 -90 14 l-35 14 39 -4 c35 -5 37 -4 20 9 -23 17 -14 19 20 4z m164 -16
c-1 -10 15 -45 35 -77 20 -33 35 -62 32 -64 -2 -3 -20 7 -39 22 -40 30 -62 87
-45 117 12 24 18 24 17 2z m705 6 c21 -10 31 -23 55 -71 2 -5 -3 -8 -11 -8 -9
0 -19 9 -22 21 -7 21 -7 21 -19 -2 -22 -45 -138 -65 -170 -30 -9 10 -16 22
-15 27 4 23 -2 26 -17 8 -8 -10 -12 -13 -8 -5 4 9 3 12 -4 7 -6 -4 -9 -13 -6
-20 6 -16 -24 -56 -42 -56 -17 0 28 89 49 96 19 6 50 -13 42 -26 -2 -4 4 -15
14 -24 30 -28 95 -11 131 32 26 31 28 38 14 45 -9 5 -26 7 -40 4 -13 -2 -21 0
-18 4 7 12 38 11 67 -2z m1347 -41 c0 -4 -6 -8 -14 -8 -25 0 -46 12 -46 25 0
11 6 11 30 2 17 -6 30 -15 30 -19z m1222 -10 c18 -34 18 -39 4 -73 -22 -51
-20 -75 4 -75 11 0 27 -11 36 -25 25 -38 5 -95 -53 -151 -53 -52 -74 -58 -40
-11 33 44 43 62 29 53 -7 -4 -9 13 -6 58 4 49 0 77 -16 118 -25 67 -25 70 4
34 l24 -29 7 34 c7 29 4 36 -28 65 -36 34 -37 47 -3 42 10 -2 28 -19 38 -40z
m-1232 -17 c0 -3 -20 -37 -44 -75 -47 -73 -64 -75 -42 -5 28 90 32 97 60 92
14 -3 26 -8 26 -12z m-1878 -23 c25 -21 49 -32 63 -30 17 2 39 -12 80 -52 71
-70 64 -73 -11 -6 -57 53 -76 57 -114 25 -37 -31 -67 -3 -54 50 4 18 2 30 -7
36 -8 5 -10 9 -6 9 5 0 26 -15 49 -32z m-915 0 c-3 -8 -6 -5 -6 6 -1 11 2 17
5 13 3 -3 4 -12 1 -19z m1349 10 c-10 -6 -22 -6 -26 -2 -5 5 3 10 18 11 22 1
24 0 8 -9z m-1011 -38 c-11 -5 -33 -8 -50 -8 -29 1 -29 1 5 8 49 10 69 10 45
0z m2457 -43 c-3 -35 1 -66 12 -91 15 -37 17 -38 38 -24 23 15 23 15 39 -66 9
-44 19 -94 23 -111 5 -21 5 -26 -2 -16 -7 10 -9 6 -7 -15 4 -46 14 -62 36 -57
50 14 -12 -59 -67 -77 -37 -12 -84 -6 -84 10 0 6 9 10 20 10 11 0 20 2 20 5 0
2 -22 26 -49 53 -66 66 -95 124 -94 187 0 55 16 93 68 161 18 24 36 53 40 64
10 32 12 24 7 -33z m-2381 -1 c-17 -24 -27 -46 -24 -50 4 -3 2 -6 -4 -6 -5 0
-10 -6 -11 -12 -1 -7 -5 -45 -9 -83 -9 -78 -32 -122 -90 -176 -32 -29 -43 -33
-73 -29 l-35 6 31 6 c72 16 134 101 134 185 0 57 25 115 70 166 43 49 48 47
11 -7z m1054 24 c-11 -5 -27 -9 -35 -9 -9 0 -8 4 5 9 11 5 27 9 35 9 9 0 8 -4
-5 -9z m-759 -46 c-8 -21 -15 -31 -15 -22 -1 18 20 70 26 65 2 -2 -3 -21 -11
-43z m164 26 c0 -5 -7 -7 -15 -4 -8 4 -15 8 -15 10 0 2 7 4 15 4 8 0 15 -4 15
-10z m125 -20 c3 -6 23 -19 43 -30 20 -10 33 -19 27 -19 -5 -1 -32 13 -60 29
-27 16 -42 30 -33 30 9 0 20 -5 23 -10z m-956 -168 c6 -20 9 -38 6 -40 -7 -7
-25 73 -30 133 l-4 60 9 -58 c5 -32 14 -75 19 -95z m232 125 c-6 -8 -8 -17 -4
-20 3 -4 2 -7 -4 -7 -17 0 -23 13 -12 27 6 7 16 13 21 13 7 0 6 -5 -1 -13z
m427 -77 c-2 -49 -9 -75 -21 -87 -16 -16 -17 -14 -17 38 0 61 16 119 32 119 6
0 9 -27 6 -70z m2137 50 c-3 -5 -12 -10 -18 -10 -7 0 -6 4 3 10 19 12 23 12
15 0z m-1598 -26 c-3 -3 -12 -4 -19 -1 -8 3 -5 6 6 6 11 1 17 -2 13 -5z m48
-34 c-4 -6 5 -10 20 -10 14 0 24 4 21 8 -2 4 4 8 15 8 24 0 24 -12 0 -26 -30
-15 -81 -12 -126 9 l-40 19 58 1 c36 1 56 -3 52 -9z m-275 -72 c-54 -49 -82
-58 -115 -35 -25 19 -11 37 29 37 22 0 52 12 82 33 27 18 51 28 53 23 2 -5
-20 -31 -49 -58z m3070 7 c-14 -42 -72 -95 -104 -95 -13 0 -43 -7 -66 -15 -23
-8 -50 -15 -59 -14 -9 0 11 9 43 19 32 10 83 35 112 56 43 29 56 45 66 78 7
26 13 34 15 23 3 -9 -1 -33 -7 -52z m-887 -63 c3 -43 2 -50 -9 -41 -19 16 -18
-17 2 -77 19 -55 12 -66 -21 -33 -37 37 -39 170 -3 238 l12 23 7 -28 c4 -16 9
-53 12 -82z m105 71 c17 -13 57 -33 87 -43 103 -35 124 -49 135 -89 24 -87 40
-165 40 -188 l0 -26 -78 6 c-113 7 -168 41 -214 130 -33 65 -45 257 -14 240 6
-3 26 -17 44 -30z m-2168 7 c-24 -15 -37 -11 -16 5 11 8 22 12 25 9 3 -3 -1
-9 -9 -14z m2830 -9 c0 -26 -47 -65 -122 -100 -55 -26 -79 -31 -140 -32 -40 0
-84 4 -98 10 l-25 10 27 0 c23 1 26 5 24 29 -2 15 1 33 8 41 9 12 8 12 -11 2
-41 -21 -24 -2 20 24 24 14 57 25 73 25 l29 0 -25 -20 c-14 -11 -19 -20 -12
-20 7 0 10 -5 6 -12 -11 -18 19 3 34 24 16 21 50 24 58 4 3 -8 0 -24 -6 -36
-16 -31 1 -48 32 -32 22 11 22 11 -4 6 -44 -10 -33 2 38 42 36 20 68 43 71 50
7 18 23 8 23 -15z m-2723 13 c-3 -3 -12 -4 -19 -1 -8 3 -5 6 6 6 11 1 17 -2
13 -5z m229 -32 c-30 -48 -56 -133 -56 -185 0 -49 42 -259 69 -347 11 -36 41
-98 66 -139 25 -41 44 -78 43 -83 -5 -13 -85 129 -110 194 -27 71 -78 316 -78
377 0 61 21 132 54 182 34 50 44 51 12 1z m-1372 -94 c-4 -6 -10 -5 -15 3 -14
22 -10 33 6 19 8 -7 12 -17 9 -22z m1013 -80 c-2 -18 -4 -4 -4 32 0 36 2 50 4
33 2 -18 2 -48 0 -65z m-987 37 c0 -5 -5 -3 -10 5 -5 8 -10 20 -10 25 0 6 5 3
10 -5 5 -8 10 -19 10 -25z m3500 -54 c49 -58 92 -79 180 -89 48 -5 65 -11 65
-22 0 -18 -88 -50 -160 -57 l-50 -5 -27 45 -27 45 47 -23 c26 -12 61 -25 77
-28 29 -6 29 -6 5 4 -63 27 -113 55 -117 67 -3 6 -11 12 -18 12 -7 0 -15 15
-18 33 -3 17 -8 40 -12 50 -13 32 14 17 55 -32z m-3051 1 c-6 -18 -15 -32 -20
-32 -12 0 -11 6 7 41 19 39 28 33 13 -9z m-398 11 c13 -17 13 -17 -6 -3 -11 8
-22 16 -24 17 -2 2 0 3 6 3 6 0 17 -8 24 -17z m103 -15 c-4 -22 2 -50 17 -83
l23 -50 6 35 c7 32 7 31 9 -17 0 -29 -1 -53 -3 -53 -9 0 -64 97 -70 122 -5 24
7 78 18 78 3 0 2 -15 0 -32z m416 -2 c0 -2 -11 -1 -25 2 -14 2 -22 8 -19 13 4
8 44 -6 44 -15z m532 -11 c3 -13 1 -22 -3 -19 -9 5 -13 44 -5 44 2 0 6 -11 8
-25z m2698 -12 c0 -7 -10 -18 -22 -24 -19 -9 -21 -9 -10 2 6 7 12 24 12 39 0
20 2 22 10 10 5 -8 10 -20 10 -27z m-2727 7 c3 -11 1 -18 -4 -14 -5 3 -9 12
-9 20 0 20 7 17 13 -6z m-989 -66 c3 -26 75 -254 160 -508 85 -253 186 -558
224 -677 63 -192 99 -284 147 -369 36 -62 68 -139 101 -243 31 -95 43 -118 79
-154 23 -24 37 -43 31 -43 -20 0 -111 86 -131 124 -43 79 -41 21 1 -69 54
-112 152 -177 233 -155 26 7 37 6 43 -2 10 -18 -11 -28 -58 -28 -95 0 -238
111 -291 226 -30 66 -41 137 -24 158 9 11 -12 90 -104 378 -64 199 -140 435
-170 523 -29 88 -87 264 -129 390 -41 127 -97 290 -125 364 -56 147 -63 173
-25 96 22 -46 24 -48 24 -20 0 17 -7 43 -15 59 -15 29 -15 29 3 13 11 -10 22
-38 26 -63z m249 43 c-3 -5 -10 -4 -15 1 -6 6 -7 16 -3 22 6 9 9 9 16 -1 4 -7
5 -17 2 -22z m200 -37 c-6 -6 -33 30 -33 43 0 5 9 -1 19 -14 11 -13 17 -26 14
-29z m174 -7 c17 -16 41 -46 53 -68 26 -45 18 -39 -29 23 -18 23 -39 42 -46
42 -7 0 -18 7 -25 15 -22 27 13 18 47 -12z m2173 -38 c0 -2 -10 -9 -22 -15
-22 -11 -22 -10 -4 4 21 17 26 19 26 11z m536 -33 c-5 -8 -76 -4 -76 4 0 2 18
4 41 4 22 0 38 -4 35 -8z m97 -36 c33 -26 41 -29 58 -17 12 7 24 10 27 7 8 -9
-1 -15 -34 -22 -22 -4 -40 2 -77 26 -26 18 -44 36 -41 41 6 11 15 6 67 -35z
m-2439 -27 c-4 -7 -3 -9 2 -6 5 3 14 -10 20 -29 6 -19 7 -34 2 -34 -9 0 -39
63 -53 110 l-7 25 21 -27 c12 -15 19 -33 15 -39z m-836 -6 c0 -41 -1 -44 -10
-23 -8 22 -4 70 6 70 3 0 4 -21 4 -47z m2611 -2 c-29 -40 -38 -32 -9 9 12 17
24 29 27 26 3 -2 -5 -18 -18 -35z m381 -55 c0 -26 -6 -18 -14 19 -5 22 -4 26
4 15 5 -8 10 -24 10 -34z m-2041 -16 c0 -9 -4 -8 -9 5 -5 11 -9 27 -9 35 0 9
4 8 9 -5 5 -11 9 -27 9 -35z m1578 26 c12 -13 27 -35 34 -48 14 -25 19 -88 7
-88 -5 0 -8 11 -8 25 0 36 -24 79 -54 99 -15 9 -26 21 -26 26 0 18 26 10 47
-14z m108 14 c-7 -11 -45 -33 -45 -26 0 2 7 12 16 20 17 18 39 22 29 6z
m-1983 -26 c15 -8 30 -20 34 -26 5 -7 -4 -5 -19 5 -28 18 -41 22 -33 9 3 -5
-19 -4 -49 1 -41 8 -63 7 -99 -5 -25 -8 -46 -14 -46 -13 0 2 12 11 27 21 54
35 125 38 185 8z m2919 -60 c0 -67 -20 -139 -34 -125 -7 7 -6 15 2 25 7 8 13
50 14 99 1 53 5 79 11 70 4 -8 8 -39 7 -69z m-3158 58 c-80 -5 -95 -37 -30
-67 38 -17 55 -31 85 -69 27 -35 29 -56 4 -33 -10 10 -22 14 -27 10 -4 -5 -5
-2 -1 5 4 7 1 12 -8 12 -8 0 -28 12 -45 26 -17 14 -31 21 -31 16 0 -21 92
-133 118 -143 15 -6 61 -9 102 -6 70 4 73 3 40 -9 -19 -7 -57 -13 -83 -13 -45
-1 -52 2 -106 53 -31 30 -67 73 -80 95 -20 37 -20 41 -5 41 16 0 16 1 -1 20
-15 16 -16 25 -7 44 12 26 44 35 97 26 23 -4 18 -6 -22 -8z m2017 8 c0 -16
-48 -108 -60 -115 -13 -8 -13 26 1 62 17 45 59 83 59 53z m238 -47 c-17 -27
-32 -49 -33 -51 -2 -1 -5 6 -8 18 -3 13 -1 18 6 13 6 -4 8 2 5 15 -4 12 -3 20
2 17 4 -2 15 4 25 15 33 37 35 21 3 -27z m-2550 -196 c24 -103 37 -125 29 -47
-18 166 -18 184 0 220 11 22 27 36 41 38 32 5 98 -41 104 -71 4 -23 3 -24 -32
-20 -50 7 -65 -14 -64 -91 2 -121 87 -346 170 -451 56 -70 63 -87 16 -39 -38
39 -52 45 -52 22 0 -5 4 -6 10 -3 6 4 7 -1 3 -11 -4 -11 -2 -15 4 -11 6 4 16
0 23 -8 10 -12 10 -15 -3 -15 -29 0 -85 102 -142 255 -32 88 -55 134 -55 111
0 -29 81 -300 93 -312 4 -4 1 -14 -6 -22 -8 -10 -8 -13 -1 -9 7 4 14 0 17 -7
4 -10 -1 -14 -14 -13 -51 4 -140 276 -173 532 -19 146 -20 224 -1 115 7 -41
22 -115 33 -163z m740 198 c-3 -3 -9 2 -12 12 -6 14 -5 15 5 6 7 -7 10 -15 7
-18z m-343 3 c-16 -6 -37 -17 -46 -24 -18 -16 -59 -19 -59 -5 0 14 14 21 62
30 60 12 79 11 43 -1z m486 -181 c6 -162 9 -190 32 -252 14 -38 19 -61 11 -50
-24 32 -62 167 -74 257 -5 46 -14 99 -20 118 -5 19 -10 51 -10 72 0 30 4 37
23 40 12 2 24 2 27 0 3 -2 8 -85 11 -185z m1533 150 c4 -17 3 -26 -2 -23 -6 3
-12 19 -14 36 -6 37 7 27 16 -13z m-99 12 c-5 -14 -3 -19 3 -15 6 3 13 2 17
-4 3 -5 0 -10 -9 -10 -8 0 -22 -3 -32 -7 -16 -6 -16 -4 2 25 21 37 28 41 19
11z m830 -31 c51 -66 158 -137 141 -93 -11 29 3 15 27 -27 27 -46 44 -118 29
-118 -5 0 -12 18 -16 39 -6 42 -40 78 -99 106 -40 19 -81 55 -85 75 -2 8 -9
22 -16 30 -16 18 -28 40 -24 40 2 0 22 -23 43 -52z m-2642 29 c18 -8 38 -21
45 -29 11 -14 9 -15 -25 -6 -67 17 -100 21 -83 9 8 -6 22 -11 31 -11 9 0 27
-9 40 -19 19 -15 21 -22 12 -32 -10 -10 -16 -7 -32 12 -10 13 -23 21 -27 16
-4 -4 -2 -13 4 -19 18 -18 15 -27 -7 -21 -12 3 -17 11 -14 19 4 11 0 12 -18 5
-24 -9 -27 -19 -15 -67 4 -15 3 -23 -2 -20 -11 7 -32 85 -32 120 0 52 55 71
123 43z m104 -84 c-3 -10 -5 -4 -5 12 0 17 2 24 5 18 2 -7 2 -21 0 -30z m1353
12 c-14 -36 -40 -85 -45 -85 -6 0 10 41 30 80 19 36 28 39 15 5z m214 -44 c-7
-7 -12 3 -18 39 l-6 35 14 -35 c7 -19 12 -37 10 -39z m209 24 c42 -17 42 -18
24 -34 -10 -8 -22 -5 -47 14 -43 31 -64 31 -96 0 -21 -21 -24 -32 -20 -75 3
-47 -11 -80 -27 -63 -4 3 -7 2 -7 -4 0 -6 8 -14 18 -18 15 -6 15 -8 -5 -25
-18 -14 -20 -20 -9 -29 11 -9 9 -20 -10 -59 -34 -70 -51 -145 -59 -262 -10
-124 -11 -160 -5 -160 3 0 11 -22 16 -50 10 -46 9 -49 -6 -35 -31 28 -68 109
-79 171 -13 70 1 154 45 280 28 77 41 96 30 44 -3 -17 -2 -29 3 -26 16 10 19
57 5 63 -22 8 -17 29 38 149 68 147 90 161 191 119z m1025 -5 c3 -7 0 -10 -7
-6 -7 5 -11 -7 -11 -36 -1 -24 -7 -56 -16 -73 -12 -26 -13 -27 -9 -5 3 14 9
51 12 83 5 53 20 71 31 37z m-2103 -51 c-13 -24 -25 -40 -25 -36 0 13 41 89
46 84 2 -2 -7 -24 -21 -48z m-675 5 c0 -14 -4 -23 -10 -19 -6 4 -7 11 -4 17 4
7 2 8 -4 4 -7 -4 -12 -16 -12 -27 0 -20 -34 -27 -45 -9 -3 6 0 10 8 10 7 0 24
11 37 25 29 31 30 31 30 -1z m1490 11 c0 -2 -19 -14 -42 -26 -24 -12 -53 -31
-65 -42 -13 -11 -23 -16 -23 -10 0 15 42 50 80 67 37 16 50 19 50 11z m343 -2
c-7 -2 -19 -2 -25 0 -7 3 -2 5 12 5 14 0 19 -2 13 -5z m-1669 -188 c53 -87
103 -178 79 -146 -10 14 -26 34 -36 45 -15 17 -18 18 -13 4 9 -30 0 -21 -55
59 -29 42 -48 73 -42 70 6 -4 28 -32 48 -63 20 -30 39 -53 42 -51 6 7 -38 75
-110 172 l-60 80 52 -50 c29 -27 72 -81 95 -120z m1901 110 c28 -9 33 -13 18
-14 -13 -1 -23 -7 -23 -13 0 -9 -3 -9 -9 1 -8 13 -13 13 -38 1 -22 -12 -183
-23 -183 -13 0 2 11 10 25 19 51 34 142 42 210 19z m-1703 -28 c36 -16 58 -33
66 -52 23 -51 -2 -45 -65 16 -33 32 -59 59 -57 59 2 0 27 -11 56 -23z m245 -3
c-3 -3 -12 -4 -19 -1 -8 3 -5 6 6 6 11 1 17 -2 13 -5z m-983 -40 c3 -8 2 -12
-4 -9 -6 3 -10 10 -10 16 0 14 7 11 14 -7z m1803 -29 c-8 -8 -21 -47 -28 -87
l-13 -73 -7 60 c-9 79 4 115 43 115 17 0 18 -2 5 -15z m184 -111 c-31 -48 -31
-49 -26 -15 3 19 11 43 17 55 10 19 10 20 -6 7 -12 -10 -11 -4 6 21 l23 36 8
-28 c7 -22 3 -36 -22 -76z m353 92 c19 -8 37 -19 41 -26 6 -9 3 -10 -10 -2
-14 7 -23 5 -39 -9 -11 -11 -27 -19 -35 -20 -9 -1 -5 -5 9 -9 25 -8 25 -8 -7
-15 -18 -4 -33 -11 -33 -15 0 -4 -18 -12 -40 -19 -22 -6 -40 -16 -40 -20 0 -5
-8 -12 -17 -15 -14 -6 -12 -2 5 17 12 13 22 27 22 31 0 7 -25 -11 -88 -64 -13
-11 -31 -20 -39 -20 -10 0 -13 -6 -9 -16 5 -13 3 -14 -6 -7 -7 6 -20 9 -29 8
-14 -2 -14 2 3 37 10 21 16 47 13 57 -7 23 37 64 105 95 63 29 141 34 194 12z
m-530 -38 l-5 -33 15 30 14 30 1 -27 c1 -43 -21 -128 -32 -121 -6 3 -7 2 -4
-4 3 -5 2 -60 -3 -120 -9 -116 -6 -130 55 -275 14 -34 -3 -18 -33 30 -56 92
-81 208 -63 302 28 154 44 220 52 220 5 0 6 -15 3 -32z m-1686 -32 l-27 -12
48 -22 c27 -12 55 -22 62 -22 11 0 11 -2 1 -8 -13 -9 -132 43 -132 58 0 11 19
18 50 18 l25 0 -27 -12z m642 -32 c0 -2 -9 0 -20 6 -11 6 -20 13 -20 16 0 2 9
0 20 -6 11 -6 20 -13 20 -16z m1264 -27 c-3 -8 -12 -18 -20 -21 -11 -4 -11 0
2 20 18 26 28 27 18 1z m373 -70 c-5 -17 -37 47 -37 75 1 18 5 13 21 -20 11
-24 18 -49 16 -55z m-1561 67 c18 -14 18 -14 -6 -3 -31 14 -36 19 -24 19 6 0
19 -7 30 -16z m1500 -6 c-2 -19 -11 -24 -47 -29 -50 -7 -94 -23 -104 -38 -3
-6 -13 -11 -21 -11 -8 0 -12 4 -9 10 3 6 -1 7 -10 3 -12 -4 -13 -8 -4 -13 9
-6 6 -14 -9 -30 -14 -16 -22 -18 -27 -9 -5 8 -4 10 3 5 7 -4 12 -5 12 -2 0 2
3 13 7 23 6 16 5 17 -13 3 -18 -14 -18 -14 -5 3 38 48 149 105 208 106 18 1
22 -4 19 -21z m-2023 5 c-7 -2 -19 -2 -25 0 -7 3 -2 5 12 5 14 0 19 -2 13 -5z
m-60 -10 c-7 -2 -19 -2 -25 0 -7 3 -2 5 12 5 14 0 19 -2 13 -5z m84 -9 c-3 -3
-12 -4 -19 -1 -8 3 -5 6 6 6 11 1 17 -2 13 -5z m-97 -14 c19 -6 69 -11 110
-11 51 0 70 -3 60 -9 -8 -5 -46 -10 -85 -10 -53 0 -77 5 -100 20 -34 23 -33
24 15 10z m-96 -72 c-6 -57 -3 -67 21 -103 l27 -40 -26 24 c-38 35 -52 91 -37
141 6 22 14 40 16 40 2 0 2 -28 -1 -62z m560 46 c5 -14 4 -15 -9 -4 -17 14
-19 20 -6 20 5 0 12 -7 15 -16z m319 -57 c11 -32 12 -47 5 -45 -17 6 -48 69
-48 97 0 22 2 23 14 11 7 -8 21 -37 29 -63z m107 47 c59 -9 68 -14 88 -47 10
-18 51 -68 90 -113 l70 -81 -73 18 c-85 20 -152 56 -195 106 -33 37 -53 79
-47 97 2 6 -3 16 -12 23 -17 13 -18 13 79 -3z m1224 -1 c5 -11 -3 -27 -24 -47
-16 -17 -30 -25 -30 -18 0 6 -10 12 -22 12 -22 1 -73 30 -52 30 5 0 2 5 -6 10
-21 13 22 29 81 29 35 1 48 -3 53 -16z m-1955 -20 c-12 -14 -12 -16 1 -11 8 3
31 -1 50 -8 l35 -12 -57 -1 c-61 -1 -81 12 -52 34 26 20 39 18 23 -2z m837 -2
c-3 -5 2 -15 11 -22 12 -10 14 -10 9 -1 -9 14 -24 13 192 16 95 2 175 -1 178
-6 3 -4 10 -6 15 -2 5 3 20 -19 34 -48 26 -55 32 -88 16 -88 -5 0 -11 -8 -14
-17 -5 -22 -22 16 -41 92 l-13 50 -7 -80 c-4 -44 -7 -109 -8 -145 0 -36 -2
-54 -5 -40 -6 37 -44 150 -50 150 -2 0 -2 -15 2 -32 l6 -33 -15 25 c-28 47
-12 -29 25 -115 12 -29 19 -86 9 -80 -5 3 -10 -3 -13 -12 -2 -10 -2 -2 0 17 4
34 -5 56 -74 183 -16 29 -33 36 -33 12 0 -8 -4 -15 -10 -15 -5 0 -7 -8 -3 -17
3 -10 -15 2 -40 27 -26 25 -50 53 -53 63 -3 11 -12 16 -20 13 -9 -3 -12 -1 -9
4 3 6 -1 10 -10 10 -36 0 -104 68 -90 90 3 6 8 10 11 10 3 0 3 -4 0 -9z m-372
-43 c-40 -46 -54 -58 -54 -46 0 14 50 68 63 68 6 0 2 -10 -9 -22z m-602 -27
c56 -22 111 -71 138 -121 19 -36 4 -34 -32 5 -18 21 -68 62 -110 92 -43 30
-78 57 -78 60 0 3 6 1 13 -4 6 -5 38 -20 69 -32z m646 -97 c-4 -73 -11 -58
-13 28 -1 50 1 64 7 48 5 -13 7 -47 6 -76z m-390 44 c6 -16 10 -28 7 -28 -5 0
-35 56 -35 67 0 12 15 -10 28 -39z m1947 32 c14 -6 3 -9 -40 -10 -34 0 -89
-11 -127 -24 -38 -12 -68 -21 -68 -20 0 9 71 39 115 50 59 15 93 16 120 4z
m-538 -22 c-3 -8 -6 -5 -6 6 -1 11 2 17 5 13 3 -3 4 -12 1 -19z m568 -39 c4
-18 2 -36 -6 -45 -10 -12 -15 -10 -30 16 -23 37 -43 38 -94 4 -29 -19 -34 -21
-20 -6 28 28 114 72 130 65 8 -2 17 -18 20 -34z m-2544 14 c28 -33 72 -43 140
-32 60 10 165 4 173 -10 2 -3 -56 -6 -130 -5 -129 1 -135 2 -174 29 -22 15
-40 29 -40 31 0 10 19 2 31 -13z m1109 -35 c0 -5 -13 1 -30 14 -16 12 -30 26
-30 30 0 5 14 -1 30 -14 17 -12 30 -26 30 -30z m-1159 26 c12 -14 11 -16 -5
-13 -11 2 -21 10 -24 17 -5 17 13 15 29 -4z m983 -23 c-4 -17 -9 -30 -11 -27
-3 2 -2 19 2 36 9 41 17 33 9 -9z m1043 -38 c-2 -16 -4 -3 -4 27 0 30 2 43 4
28 2 -16 2 -40 0 -55z m-1459 30 c-10 -2 -26 -2 -35 0 -10 3 -2 5 17 5 19 0
27 -2 18 -5z m357 -122 c-6 -5 -25 48 -31 84 -3 17 4 5 15 -25 11 -30 18 -57
16 -59z m-261 54 c-4 -8 -11 -12 -16 -9 -6 4 -5 10 3 15 19 12 19 11 13 -6z
m365 -102 c-11 -36 -23 -42 -33 -18 -3 8 -2 15 3 15 5 0 9 6 8 13 0 6 1 35 2
62 l3 50 14 -45 c11 -34 11 -52 3 -77z m-426 73 c4 -11 1 -13 -11 -9 -15 6
-15 5 -3 -10 8 -10 11 -20 7 -24 -3 -3 -6 -2 -6 3 0 6 -9 20 -20 32 l-21 22
25 0 c13 0 26 -7 29 -14z m-178 -26 c3 -5 -11 -13 -32 -18 -129 -30 -180 -44
-204 -56 -18 -9 -26 -10 -23 -2 9 19 64 58 102 72 43 15 148 18 157 4z m71 -2
c4 -6 3 -8 -4 -4 -5 3 -13 0 -15 -6 -3 -8 -6 -6 -6 5 -1 19 14 23 25 5z m-420
-49 c-32 -16 -61 -28 -64 -25 -5 6 96 56 113 56 6 0 -16 -14 -49 -31z m1187
24 c-7 -2 -21 -2 -30 0 -10 3 -4 5 12 5 17 0 24 -2 18 -5z m-773 -17 c0 -3 -4
-8 -10 -11 -5 -3 -10 -1 -10 4 0 6 5 11 10 11 6 0 10 -2 10 -4z m768 -56 c9
-14 27 -38 41 -55 15 -17 18 -23 7 -15 -32 25 -76 92 -75 114 1 20 2 20 6 1 3
-10 12 -31 21 -45z m-379 -113 c-6 -40 -15 -126 -19 -192 l-7 -120 -1 102 c-1
56 2 135 8 175 5 40 13 100 17 133 7 59 8 59 11 17 2 -24 -2 -76 -9 -115z
m-798 109 c36 -11 50 -12 60 -3 7 7 5 2 -4 -9 -14 -17 -15 -23 -5 -27 8 -3 6
-6 -6 -6 -12 -1 -16 4 -12 14 4 12 -3 15 -33 15 -22 0 -44 6 -51 15 -15 18 -8
19 51 1z m324 -51 c-22 -19 -44 -34 -50 -35 -5 0 -3 -5 5 -11 13 -9 13 -10 0
-6 -9 2 -37 -24 -73 -70 -59 -75 -92 -103 -41 -35 76 102 102 131 144 160 59
42 65 40 15 -3z m737 19 c25 -8 54 -25 64 -36 l19 -21 -30 21 c-16 11 -49 26
-72 32 -24 6 -43 13 -43 15 0 8 15 6 62 -11z m513 -3 c-3 -6 -11 -11 -17 -11
-6 0 -6 6 2 15 14 17 26 13 15 -4z m-576 -98 c10 -43 21 -87 25 -98 3 -11 -5
3 -19 32 -24 47 -48 167 -31 151 4 -3 16 -42 25 -85z m-875 7 c-49 -33 -99
-60 -112 -60 -13 0 -21 4 -18 8 10 16 118 85 153 98 71 25 66 14 -23 -46z
m991 9 c6 -6 -1 -6 -18 0 -16 6 -26 7 -22 2 3 -5 0 -13 -6 -17 -12 -7 -59 38
-59 56 0 10 89 -25 105 -41z m851 9 c-19 -27 -21 -19 -4 18 7 14 14 21 16 15
2 -6 -4 -21 -12 -33z m-1433 -20 c44 -54 101 -147 94 -154 -2 -3 -16 15 -30
39 -15 24 -47 70 -72 101 -25 31 -42 56 -36 56 5 0 25 -19 44 -42z m113 27
c15 -11 16 -14 3 -15 -8 0 -24 7 -35 15 -15 11 -16 14 -3 15 8 0 24 -7 35 -15z
m704 -21 c47 -19 72 -33 55 -29 -29 6 -156 62 -145 64 3 1 44 -15 90 -35z
m750 19 c0 -5 -27 -41 -61 -82 -33 -41 -67 -88 -76 -104 -25 -48 -55 -139 -60
-182 -7 -58 -13 -56 -13 3 0 70 32 151 92 230 28 37 54 68 59 70 4 2 18 19 29
38 21 33 30 41 30 27z m-1014 -95 c20 -27 34 -51 32 -53 -3 -3 -19 15 -37 40
-18 25 -37 43 -42 40 -5 -4 -9 -2 -9 4 0 5 -3 18 -7 28 -6 16 -5 16 10 4 10
-7 33 -36 53 -63z m52 14 c-6 -7 -7 -12 -2 -11 18 3 25 -1 18 -12 -4 -7 -21 3
-45 27 -45 44 -42 63 6 31 26 -17 31 -25 23 -35z m370 -67 c0 -18 -2 -23 -5
-11 -4 15 -7 16 -15 5 -7 -10 -8 -7 -4 11 3 14 6 36 7 50 l1 25 8 -25 c4 -14
8 -38 8 -55z m322 55 c-8 -5 -36 -10 -62 -10 -27 0 -48 -4 -48 -10 0 -5 -3 -9
-7 -9 -5 1 -11 0 -15 -1 -5 -1 -11 -3 -15 -4 -5 -1 -18 -7 -30 -14 -33 -18
-28 -7 9 19 33 24 79 36 143 38 29 0 36 -2 25 -9z m-1770 -30 c-19 -13 -30
-13 -30 0 0 6 10 10 23 10 18 0 19 -2 7 -10z m249 -55 c-11 -33 -23 -79 -26
-103 -6 -44 -16 -58 -33 -47 -7 4 -7 11 -2 18 5 7 15 30 22 52 22 70 52 147
55 143 2 -2 -5 -30 -16 -63z m296 -9 c57 -45 125 -122 125 -139 0 -6 -20 12
-45 40 -25 29 -71 75 -103 104 -64 59 -52 56 23 -5z m-134 22 c11 -21 11 -22
-4 -9 -10 7 -17 17 -17 22 0 15 9 10 21 -13z m1091 7 c4 -5 7 -21 7 -35 0 -16
-3 -19 -6 -10 -4 8 -14 21 -25 28 -10 7 -18 17 -18 21 0 12 33 8 42 -4z
m-1497 -28 c-8 -13 -12 -27 -8 -32 5 -4 2 -5 -4 -1 -18 10 -16 33 5 45 24 14
24 14 7 -12z m1574 -71 c34 -49 31 -69 -4 -28 -31 38 -45 67 -44 94 l0 23 9
-23 c6 -13 23 -42 39 -66z m-1129 5 c0 -18 -4 -14 -24 29 l-17 35 20 -25 c11
-14 21 -31 21 -39z m59 -21 c8 -17 1 -13 -23 15 -20 22 -36 43 -36 47 0 13 47
-37 59 -62z m-121 32 c2 -7 -6 -12 -17 -12 -21 0 -27 11 -14 24 9 9 26 2 31
-12z m-220 -28 c-3 -14 -5 -12 -10 9 -3 19 -2 25 4 19 6 -6 8 -18 6 -28z
m1073 -8 c1 -6 1 -15 0 -20 -1 -4 4 -14 10 -22 12 -15 9 -17 -15 -8 -8 3 -12
12 -9 20 3 10 -2 14 -18 14 -20 0 -21 -2 -9 -11 12 -9 11 -9 -5 -4 -11 4 -49
16 -85 27 -61 17 -46 18 45 2 33 -6 35 -5 35 20 0 26 0 26 25 10 14 -9 26 -21
26 -28z m78 12 c13 -21 13 -22 -2 -9 -21 17 -22 8 -2 -22 13 -21 13 -23 -4
-24 -11 -1 -27 7 -37 18 -17 18 -16 20 2 39 25 24 27 24 43 -2z m76 -5 c-14
-33 -16 -75 -3 -67 8 5 9 2 5 -10 -4 -10 -7 -23 -8 -29 -1 -22 -18 28 -18 56
-1 28 14 67 25 67 4 0 3 -8 -1 -17z m-448 -66 c-31 -26 -177 -106 -161 -88 10
11 174 109 184 110 3 0 -7 -10 -23 -22z m1450 8 c-2 -5 -13 -9 -23 -7 -14 2
-15 0 -6 -6 7 -5 62 -10 123 -11 61 -1 136 -7 167 -12 32 -5 82 -9 112 -9 30
0 60 -4 67 -8 6 -4 -46 -5 -115 -2 -276 10 -351 5 -425 -25 -37 -15 -70 -25
-73 -23 -2 3 11 16 30 29 19 13 33 26 31 29 -2 4 14 18 36 32 40 26 83 34 76
13z m-2027 -6 c23 0 23 -1 5 -9 -28 -12 -57 -12 -50 0 10 16 -21 12 -35 -5 -7
-8 -30 -25 -51 -37 -40 -22 -76 -83 -86 -142 -5 -39 19 -56 172 -121 126 -54
194 -65 269 -41 27 8 45 11 40 7 -19 -17 -80 -31 -137 -31 -60 0 -71 4 -270
93 -55 24 -97 68 -97 101 0 46 43 110 93 137 26 14 56 34 65 43 10 10 25 15
37 12 11 -3 31 -6 45 -7z m1905 -27 c-22 -21 -43 -37 -47 -35 -5 2 -8 0 -8 -4
0 -5 -14 -17 -31 -27 -17 -10 -53 -38 -81 -63 -64 -57 -75 -49 -13 9 47 43
203 158 214 158 3 0 -12 -17 -34 -38z m-1537 -82 c4 0 20 21 35 47 15 25 30
43 33 40 4 -3 -3 -18 -14 -34 -10 -15 -29 -46 -40 -69 l-21 -40 38 -60 c45
-71 81 -106 81 -81 0 33 57 21 103 -22 23 -21 62 -52 86 -70 50 -35 44 -42 -9
-9 -19 12 -47 21 -61 20 -44 -3 -172 89 -218 157 -48 70 -89 106 -156 137 -63
30 -114 31 -143 4 -26 -24 -27 -38 -7 -67 24 -35 77 -61 161 -82 73 -19 75
-20 24 -14 -99 10 -188 56 -212 108 -23 51 55 104 132 89 17 -4 65 -29 106
-55 l73 -48 -3 77 c-2 42 -1 53 1 25 2 -29 7 -53 11 -53z m892 82 c0 -15 -2
-15 -10 -2 -13 20 -13 33 0 25 6 -3 10 -14 10 -23z m30 -7 c0 -5 -5 -3 -10 5
-5 8 -10 20 -10 25 0 6 5 3 10 -5 5 -8 10 -19 10 -25z m990 -45 c-19 -4 -84
-13 -145 -19 -60 -7 -123 -14 -140 -16 l-30 -5 31 10 c39 12 227 38 279 38
l40 0 -35 -8z m-813 -47 c-3 -10 -5 -4 -5 12 0 17 2 24 5 18 2 -7 2 -21 0 -30z
m-468 -98 c9 -27 10 -40 2 -48 -8 -8 -11 -4 -11 16 0 16 -7 42 -17 60 -12 24
-13 29 -2 20 8 -6 20 -28 28 -48z m161 29 c0 -3 -5 -2 -11 1 -7 5 -8 -5 -4
-32 7 -46 -9 -25 -20 25 -7 32 -6 33 14 23 12 -7 21 -14 21 -17z m509 14 c-2
-2 -20 -16 -39 -33 l-35 -30 29 33 c17 17 34 32 40 32 5 0 7 -1 5 -2z m-627
-62 c10 -19 10 -20 -6 -7 -9 8 -22 24 -28 35 -10 19 -10 20 6 7 9 -8 22 -24
28 -35z m-35 -149 c45 -22 81 -42 79 -44 -11 -11 -183 75 -226 114 -69 62 -63
75 7 18 31 -26 94 -65 140 -88z m798 -106 c45 -12 -281 -23 -707 -25 -367 -1
-1041 24 -903 34 111 8 1577 0 1610 -9z m-1492 -102 c39 -10 77 -40 77 -60 0
-17 -71 -41 -104 -35 -59 12 -89 72 -48 95 22 13 29 13 75 0z m922 -69 c22 -5
77 -11 123 -13 45 -3 86 -8 90 -12 4 -4 -24 -5 -63 -2 -65 6 -68 5 -40 -8 17
-8 36 -14 43 -15 19 0 14 -14 -10 -30 -15 -9 -64 -18 -133 -23 -185 -13 -657
-19 -700 -8 -30 7 6 9 150 11 125 1 182 4 168 10 -25 10 -28 22 -13 50 13 24
44 41 90 51 41 9 238 1 295 -11z m-498 -26 c-3 -3 -12 -4 -19 -1 -8 3 -5 6 6
6 11 1 17 -2 13 -5z m46 -11 c-7 -2 -19 -2 -25 0 -7 3 -2 5 12 5 14 0 19 -2
13 -5z m-394 -202 c19 -12 4 -31 -25 -31 -35 0 -30 34 6 39 3 0 11 -3 19 -8z
m966 -10 l50 -7 -40 -7 c-22 -3 -65 -9 -95 -13 -64 -7 -77 -13 -59 -25 8 -5
79 -7 159 -4 106 4 139 3 121 -5 -49 -21 -233 -33 -536 -34 -305 0 -311 0
-358 23 -26 13 -50 21 -53 18 -10 -10 -64 15 -64 29 0 8 1 15 3 16 3 2 517 14
687 15 74 1 158 -2 185 -6z m119 -210 c3 -5 -4 -11 -17 -14 -25 -7 -278 -35
-352 -40 -27 -2 -2 -4 57 -5 58 -1 175 3 258 9 84 6 154 9 156 6 2 -2 -56 -9
-128 -16 -73 -7 -143 -17 -155 -23 -33 -16 -729 -5 -768 12 l-30 14 30 4 c26
4 27 5 10 12 -19 6 -18 8 5 21 20 11 105 15 400 19 206 4 410 7 452 8 42 1 79
-2 82 -7z m-974 -35 c0 -2 -7 -7 -16 -10 -8 -3 -12 -2 -9 4 6 10 25 14 25 6z
m-115 -176 c-3 -6 1 -7 9 -4 11 4 16 0 16 -14 0 -17 -4 -19 -34 -12 -65 14
-78 40 -20 40 20 0 33 -4 29 -10z m922 -24 c11 -10 -24 -17 -128 -26 -90 -8
-81 -8 71 -4 97 2 212 6 255 9 l80 5 -110 -22 c-102 -20 -138 -22 -500 -22
-275 0 -399 4 -420 12 -24 9 -3 11 115 7 99 -3 132 -1 105 5 -22 5 -62 9 -90
10 -93 1 -155 12 -155 27 0 12 55 14 386 10 212 -3 388 -8 391 -11z m-17 -185
l85 -7 -40 -12 c-22 -6 -76 -16 -120 -21 -66 -8 -49 -9 100 -5 99 3 191 7 205
10 25 4 25 4 2 -6 -13 -5 -62 -14 -110 -18 -116 -12 -375 -13 -342 -2 22 7 23
8 4 9 -60 3 -332 33 -354 39 -21 6 126 12 430 19 30 0 93 -2 140 -6z m-663
-47 c-3 -3 -12 -4 -19 -1 -8 3 -5 6 6 6 11 1 17 -2 13 -5z m308 -9 c21 -7
-212 -4 -250 4 -23 4 19 6 100 3 77 -2 145 -5 150 -7z"/>
<path d="M3558 6863 c7 -3 16 -2 19 1 4 3 -2 6 -13 5 -11 0 -14 -3 -6 -6z"/>
<path d="M3608 6863 c7 -3 16 -2 19 1 4 3 -2 6 -13 5 -11 0 -14 -3 -6 -6z"/>
<path d="M3708 6863 c18 -2 45 -2 60 0 15 2 0 4 -33 4 -33 0 -45 -2 -27 -4z"/>
<path d="M3433 6853 c9 -2 23 -2 30 0 6 3 -1 5 -18 5 -16 0 -22 -2 -12 -5z"/>
<path d="M3833 6853 c9 -2 23 -2 30 0 6 3 -1 5 -18 5 -16 0 -22 -2 -12 -5z"/>
<path d="M3980 6836 c156 -27 160 -27 106 -12 -27 8 -79 17 -115 20 l-66 5 75
-13z"/>
<path d="M3298 6833 c7 -3 16 -2 19 1 4 3 -2 6 -13 5 -11 0 -14 -3 -6 -6z"/>
<path d="M4148 6803 c6 -2 18 -2 25 0 6 3 1 5 -13 5 -14 0 -19 -2 -12 -5z"/>
<path d="M4200 6790 c20 -13 33 -13 25 0 -3 6 -14 10 -23 10 -15 0 -15 -2 -2
-10z"/>
<path d="M4250 6780 c8 -5 22 -9 30 -9 10 0 8 3 -5 9 -27 12 -43 12 -25 0z"/>
<path d="M4310 6761 c8 -4 29 -11 45 -15 19 -4 25 -3 15 3 -8 4 -28 11 -45 15
-19 4 -25 3 -15 -3z"/>
<path d="M2700 6645 c-14 -8 -20 -14 -14 -15 5 0 19 7 30 15 24 18 16 19 -16
0z"/>
<path d="M2437 6510 c-14 -11 -28 -20 -31 -20 -16 0 -86 -52 -86 -63 0 -8 3
-9 8 -1 4 6 27 23 52 37 49 29 99 66 89 67 -4 0 -18 -9 -32 -20z"/>
<path d="M1869 6023 c-13 -16 -12 -17 4 -4 9 7 17 15 17 17 0 8 -8 3 -21 -13z"/>
<path d="M3355 6650 c-3 -6 1 -7 9 -4 18 7 21 14 7 14 -6 0 -13 -4 -16 -10z"/>
<path d="M3526 5339 c-3 -17 -6 -40 -6 -51 0 -18 1 -18 23 -2 22 17 33 64 14
64 -4 0 -5 5 -2 10 3 6 0 10 -8 10 -8 0 -17 -14 -21 -31z"/>
<path d="M3722 5330 c-6 -11 -12 -37 -11 -57 1 -34 2 -35 9 -13 l8 25 1 -27
c2 -45 19 -41 26 6 7 43 0 86 -13 86 -4 0 -13 -9 -20 -20z"/>
<path d="M3461 5289 c-13 -17 -20 -33 -16 -37 3 -4 10 0 14 7 6 9 10 10 14 2
3 -7 4 -7 3 1 -2 7 1 21 6 31 16 31 3 29 -21 -4z"/>
<path d="M3288 5131 c-7 -10 -21 -20 -30 -22 -13 -3 -15 -8 -8 -19 7 -12 13
-9 34 15 24 28 32 45 22 45 -3 0 -11 -8 -18 -19z"/>
<path d="M3285 4990 c3 -5 8 -10 11 -10 2 0 4 5 4 10 0 6 -5 10 -11 10 -5 0
-7 -4 -4 -10z"/>
<path d="M3126 4705 c3 -7 12 -16 19 -19 9 -3 12 0 9 9 -3 7 -12 16 -19 19 -9
3 -12 0 -9 -9z"/>
<path d="M3182 4330 c0 -14 2 -19 5 -12 2 6 2 18 0 25 -3 6 -5 1 -5 -13z"/>
<path d="M4153 4235 c0 -8 5 -13 11 -12 6 1 10 -4 8 -11 -1 -8 2 -11 7 -8 5 4
12 2 16 -4 3 -5 11 -10 17 -10 13 0 -19 38 -43 50 -11 6 -16 5 -16 -5z"/>
<path d="M3220 4181 c0 -6 4 -13 10 -16 6 -3 7 1 4 9 -7 18 -14 21 -14 7z"/>
<path d="M3225 4116 c-4 -19 -5 -42 -2 -53 3 -15 6 -12 16 12 7 18 8 31 3 33
-6 2 -8 12 -5 22 3 11 3 20 0 20 -4 0 -9 -15 -12 -34z"/>
<path d="M3250 4045 c-7 -9 -8 -15 -2 -15 5 0 12 7 16 15 3 8 4 15 2 15 -2 0
-9 -7 -16 -15z"/>
<path d="M4006 3997 c3 -10 9 -15 12 -12 3 3 0 11 -7 18 -10 9 -11 8 -5 -6z"/>
<path d="M3967 3973 c-3 -15 -1 -38 5 -52 l9 -25 -22 19 -22 20 19 -33 c10
-18 27 -40 37 -49 16 -15 17 -13 17 36 0 43 -21 111 -34 111 -2 0 -6 -12 -9
-27z"/>
<path d="M3376 3877 c3 -10 9 -15 12 -12 3 3 0 11 -7 18 -10 9 -11 8 -5 -6z"/>
<path d="M3341 3854 c0 -11 3 -14 6 -6 3 7 2 16 -1 19 -3 4 -6 -2 -5 -13z"/>
<path d="M3457 3765 c-4 -8 -3 -16 1 -19 4 -3 9 4 9 15 2 23 -3 25 -10 4z"/>
<path d="M3691 3643 l-1 -113 25 0 c24 0 25 3 24 58 0 31 -4 80 -9 107 -7 44
-8 47 -16 25 l-8 -25 -7 30 c-4 17 -7 -18 -8 -82z"/>
<path d="M3753 3610 c0 -36 2 -50 4 -32 2 17 2 47 0 65 -2 17 -4 3 -4 -33z"/>
<path d="M3632 3593 c-1 -18 -6 -33 -12 -33 -5 0 -10 -7 -10 -15 0 -10 10 -15
30 -15 30 0 40 13 18 26 -7 4 -8 3 -4 -4 4 -7 3 -12 -3 -12 -5 0 -12 19 -14
43 -3 34 -4 36 -5 10z"/>
<path d="M3582 3560 c0 -19 2 -27 5 -17 2 9 2 25 0 35 -3 9 -5 1 -5 -18z"/>
<path d="M3465 3503 c-124 -11 -265 -58 -265 -89 0 -20 52 -41 139 -55 l70
-12 26 31 c24 29 55 44 115 56 32 6 -183 -3 -230 -10 -29 -4 -32 -3 -17 6 23
15 157 39 214 40 32 0 45 5 53 20 12 22 3 23 -105 13z"/>
<path d="M2661 5304 c0 -11 3 -14 6 -6 3 7 2 16 -1 19 -3 4 -6 -2 -5 -13z"/>
<path d="M2330 5296 c0 -8 4 -17 9 -20 5 -4 7 3 4 14 -6 23 -13 26 -13 6z"/>
<path d="M4886 5248 c-8 -12 -13 -25 -10 -30 3 -4 0 -8 -7 -8 -7 0 -10 -2 -7
-5 2 -3 16 1 31 8 17 8 27 20 27 35 0 28 -14 28 -34 0z"/>
<path d="M5121 5270 c26 -4 57 -13 70 -20 l24 -11 -24 20 c-17 15 -36 21 -70
20 l-46 -1 46 -8z"/>
<path d="M5105 5138 c21 -12 23 -12 28 -1 1 3 -9 8 -23 9 -23 4 -24 3 -5 -8z"/>
<path d="M5351 4840 c-1 -18 16 -46 23 -40 2 3 -2 16 -9 30 -8 15 -14 19 -14
10z"/>
<path d="M4774 4685 c-21 -14 -70 -113 -61 -121 2 -3 17 21 32 53 16 32 36 63
44 70 22 17 10 16 -15 -2z"/>
<path d="M4808 4483 c12 -2 32 -2 45 0 12 2 2 4 -23 4 -25 0 -35 -2 -22 -4z"/>
<path d="M5008 4403 c7 -3 16 -2 19 1 4 3 -2 6 -13 5 -11 0 -14 -3 -6 -6z"/>
<path d="M5515 4550 c3 -5 8 -10 11 -10 2 0 4 5 4 10 0 6 -5 10 -11 10 -5 0
-7 -4 -4 -10z"/>
<path d="M5265 4070 c-27 -7 -28 -8 -5 -8 14 0 34 3 45 8 25 11 2 11 -40 0z"/>
<path d="M4081 3084 c0 -11 3 -14 6 -6 3 7 2 16 -1 19 -3 4 -6 -2 -5 -13z"/>
<path d="M2951 3587 c2 -1 13 -9 24 -17 19 -14 19 -14 6 3 -7 9 -18 17 -24 17
-6 0 -8 -1 -6 -3z"/>
<path d="M4460 3440 c-9 -6 -10 -10 -3 -10 6 0 15 5 18 10 8 12 4 12 -15 0z"/>
<path d="M3993 3210 c0 -30 2 -43 4 -27 2 15 2 39 0 55 -2 15 -4 2 -4 -28z"/>
<path d="M3500 3126 c0 -2 8 -10 18 -17 15 -13 16 -12 3 4 -13 16 -21 21 -21
13z"/>
<path d="M3460 2520 c0 -5 5 -10 11 -10 5 0 7 5 4 10 -3 6 -8 10 -11 10 -2 0
-4 -4 -4 -10z"/>
<path d="M4579 2413 c-13 -15 -12 -15 11 -3 34 17 36 20 18 20 -9 0 -22 -7
-29 -17z"/>
<path d="M3156 2128 c16 -30 49 -58 66 -58 14 0 9 9 -21 35 -39 36 -58 45 -45
23z"/>
<path d="M3263 1473 c32 -2 81 -2 110 0 29 2 3 3 -58 3 -60 0 -84 -1 -52 -3z"/>
<path d="M3203 1263 c9 -2 23 -2 30 0 6 3 -1 5 -18 5 -16 0 -22 -2 -12 -5z"/>
</g>
</svg>
